<svg width="142" height="142" viewBox="0 0 142 142" fill="none" xmlns="http://www.w3.org/2000/svg">
<rect x="0.289307" y="71" width="100" height="100" rx="23" transform="rotate(-45 0.289307 71)" fill="white"/>
<path d="M83 83.3L83 74.5L52.2 74.5L52.2 83.3L83 83.3ZM83.704 69.5703C83.704 62.1783 80.14 57.5583 73.848 57.5583C70.812 57.5583 68.524 58.5703 67.116 60.6383C65.664 62.7063 65.048 64.2463 64.168 67.1943C63.596 69.1743 63.156 70.4943 62.804 71.1983C62.452 71.8583 61.968 72.2103 61.308 72.2103C60.384 72.2103 59.68 71.4183 59.68 69.8783C59.68 67.8983 60.78 66.4903 62.936 65.6543L58.668 58.3503C54.048 60.2863 51.496 64.6863 51.496 69.9223C51.496 73.2223 52.42 75.9063 54.268 77.9743C56.116 79.9983 58.448 81.0103 61.264 81.0103C66.016 81.0103 69.316 77.9303 71.164 71.8143L71.648 70.0983C71.868 69.3503 72 68.8223 72.132 68.5143C72.22 68.2063 72.352 67.8103 72.528 67.4143C72.88 66.5783 73.364 66.3583 73.936 66.3583C74.992 66.3583 75.52 67.3703 75.52 69.3503C75.52 72.0343 74.2 73.8823 71.604 74.8943L75.96 82.4183C80.712 80.8783 83.704 76.2583 83.704 69.5703Z" fill="#272B30"/>
</svg>
